<svg width="70" height="70" viewBox="0 0 70 70" fill="none" xmlns="http://www.w3.org/2000/svg">
<path d="M35 61.25C49.4975 61.25 61.25 49.4975 61.25 35C61.25 20.5025 49.4975 8.75 35 8.75C20.5025 8.75 8.75 20.5025 8.75 35C8.75 49.4975 20.5025 61.25 35 61.25Z" stroke="black" stroke-width="2" stroke-linecap="round" stroke-linejoin="round"/>
<path d="M35 43.75C41.0406 43.75 45.9375 38.8531 45.9375 32.8125C45.9375 26.7719 41.0406 21.875 35 21.875C28.9594 21.875 24.0625 26.7719 24.0625 32.8125C24.0625 38.8531 28.9594 43.75 35 43.75Z" stroke="black" stroke-width="2" stroke-linecap="round" stroke-linejoin="round"/>
<path d="M17.4453 54.5234C19.0912 51.2816 21.6025 48.5589 24.7011 46.657C27.7996 44.7551 31.3643 43.7483 35 43.7483C38.6357 43.7483 42.2004 44.7551 45.2989 46.657C48.3975 48.5589 50.9088 51.2816 52.5547 54.5234" stroke="black" stroke-width="2" stroke-linecap="round" stroke-linejoin="round"/>
</svg>
