<svg width="70" height="70" viewBox="0 0 70 70" fill="none" xmlns="http://www.w3.org/2000/svg">
<path d="M57.5039 9.81641L6.53516 24.1719C6.10129 24.2905 5.71453 24.54 5.42757 24.8864C5.14061 25.2327 4.9674 25.6591 4.93153 26.1075C4.89566 26.5559 4.99888 27.0044 5.22712 27.392C5.45537 27.7795 5.79754 28.0873 6.20704 28.2734L29.6133 39.3477C30.0718 39.56 30.44 39.9282 30.6524 40.3867L41.7266 63.793C41.9127 64.2025 42.2205 64.5446 42.608 64.7729C42.9956 65.0011 43.4442 65.1044 43.8925 65.0685C44.3409 65.0326 44.7673 64.8594 45.1137 64.5724C45.46 64.2855 45.7095 63.8987 45.8281 63.4648L60.1836 12.4961C60.2924 12.1242 60.2991 11.7298 60.2031 11.3544C60.107 10.9789 59.9118 10.6363 59.6378 10.3622C59.3637 10.0882 59.0211 9.89297 58.6456 9.79694C58.2702 9.7009 57.8759 9.70763 57.5039 9.81641V9.81641Z" stroke="black" stroke-width="2" stroke-linecap="round" stroke-linejoin="round"/>
<path d="M30.3242 39.6758L42.6836 27.3164" stroke="black" stroke-width="2" stroke-linecap="round" stroke-linejoin="round"/>
</svg>
