<svg width="90" height="90" viewBox="0 0 90 90" fill="none" xmlns="http://www.w3.org/2000/svg">
<rect x="0.5" y="0.5" width="89" height="89" rx="44.5" fill="#0094FF"/>
<path d="M71.884 43.2943L26.2095 20.2431C25.8248 20.0516 25.3844 19.9702 24.9471 20.0098C24.5098 20.0494 24.0962 20.2081 23.7614 20.4647C23.4267 20.7214 23.1866 21.0638 23.0732 21.4465C22.9598 21.8291 22.9785 22.2338 23.1267 22.6067L31.7261 44.3421C31.9156 44.7641 31.9156 45.2359 31.7261 45.6579L23.1267 67.3933C22.9785 67.7662 22.9598 68.1709 23.0732 68.5535C23.1866 68.9362 23.4267 69.2786 23.7614 69.5353C24.0962 69.7919 24.5098 69.9506 24.9471 69.9902C25.3844 70.0298 25.8248 69.9484 26.2095 69.7569L71.884 46.7057C72.2221 46.5371 72.504 46.29 72.7002 45.99C72.8965 45.6901 73 45.3482 73 45C73 44.6518 72.8965 44.3099 72.7002 44.01C72.504 43.71 72.2221 43.4629 71.884 43.2943V43.2943Z" fill="white" stroke="black" stroke-width="2" stroke-linecap="round" stroke-linejoin="round"/>
<path d="M34 45H46" stroke="black" stroke-width="2" stroke-linecap="round" stroke-linejoin="round"/>
<rect x="0.5" y="0.5" width="89" height="89" rx="44.5" stroke="black"/>
</svg>
